<svg width="15" height="18" viewBox="0 0 15 18" fill="none" xmlns="http://www.w3.org/2000/svg">
<path d="M7.44141 0C6.92383 0 6.5625 0.361328 6.5625 0.869141V10.7324L6.64062 12.832L3.70117 9.60938L1.51367 7.45117C1.34766 7.29492 1.12305 7.20703 0.888672 7.20703C0.390625 7.20703 0.0390625 7.57812 0.0390625 8.06641C0.0390625 8.30078 0.136719 8.51562 0.322266 8.7207L6.78711 15.1855C6.97266 15.3809 7.19727 15.4883 7.44141 15.4883C7.67578 15.4883 7.91016 15.3809 8.0957 15.1855L14.5508 8.7207C14.7461 8.51562 14.8438 8.30078 14.8438 8.06641C14.8438 7.57812 14.4824 7.20703 13.9941 7.20703C13.7598 7.20703 13.5254 7.29492 13.3691 7.45117L11.1816 9.60938L8.24219 12.8223L8.31055 10.7324V0.869141C8.31055 0.361328 7.94922 0 7.44141 0ZM0.839844 15.4688C0.341797 15.4688 0 15.8301 0 16.3379C0 16.8457 0.341797 17.2168 0.839844 17.2168H14.0137C14.5215 17.2168 14.873 16.8457 14.873 16.3379C14.873 15.8301 14.5215 15.4688 14.0137 15.4688H0.839844Z" fill="black" fill-opacity="0.85"/>
</svg>
