<svg width="20" height="20" viewBox="0 0 20 20" fill="none" xmlns="http://www.w3.org/2000/svg">
<g clip-path="url(#clip0_1820_169)">
<path d="M9.96094 19.9219C15.4102 19.9219 19.9219 15.4004 19.9219 9.96094C19.9219 4.51172 15.4004 0 9.95117 0C4.51172 0 0 4.51172 0 9.96094C0 15.4004 4.52148 19.9219 9.96094 19.9219ZM9.96094 18.2617C5.35156 18.2617 1.66992 14.5703 1.66992 9.96094C1.66992 5.35156 5.3418 1.66016 9.95117 1.66016C14.5605 1.66016 18.2617 5.35156 18.2617 9.96094C18.2617 14.5703 14.5703 18.2617 9.96094 18.2617ZM14.9707 9.95117C14.9707 9.73633 14.8926 9.58008 14.6973 9.38477L11.3965 6.06445C11.2695 5.9375 11.0938 5.86914 10.8887 5.86914C10.4883 5.86914 10.1855 6.17188 10.1855 6.57227C10.1855 6.78711 10.2734 6.96289 10.4004 7.09961L11.6211 8.31055L12.8027 9.29688L10.7422 9.21875H5.64453C5.22461 9.21875 4.91211 9.52148 4.91211 9.95117C4.91211 10.3711 5.22461 10.6738 5.64453 10.6738H10.7422L12.8027 10.6055L11.6211 11.5918L10.4004 12.8027C10.2637 12.9297 10.1855 13.1055 10.1855 13.3203C10.1855 13.7207 10.4883 14.0332 10.8887 14.0332C11.0938 14.0332 11.2695 13.9551 11.3965 13.8281L14.6973 10.5176C14.8828 10.3418 14.9707 10.166 14.9707 9.95117Z" fill="black" fill-opacity="0.85"/>
</g>
<defs>
<clipPath id="clip0_1820_169">
<rect width="19.9219" height="19.9316" fill="white"/>
</clipPath>
</defs>
</svg>
