<svg width="20" height="20" viewBox="0 0 20 20" fill="none" xmlns="http://www.w3.org/2000/svg">
<g clip-path="url(#clip0_2_30)">
<path d="M9.96094 19.9219C15.4102 19.9219 19.9219 15.4004 19.9219 9.96094C19.9219 4.51172 15.4004 0 9.95117 0C4.51172 0 0 4.51172 0 9.96094C0 15.4004 4.52148 19.9219 9.96094 19.9219ZM13.1152 12.4609C12.666 12.4609 12.373 12.1484 12.373 11.6699V9.94141L12.5195 8.36914L11.0645 9.92188L7.38281 13.6133C7.22656 13.7598 7.04102 13.8477 6.79688 13.8477C6.35742 13.8477 6.05469 13.5547 6.05469 13.0957C6.05469 12.9004 6.15234 12.6953 6.29883 12.5488L10 8.85742L11.5723 7.39258L10.0781 7.54883H8.26172C7.77344 7.54883 7.46094 7.25586 7.46094 6.81641C7.46094 6.36719 7.76367 6.07422 8.24219 6.07422H13.0078C13.5254 6.07422 13.8574 6.30859 13.8574 6.9043V11.6504C13.8574 12.1191 13.5547 12.4609 13.1152 12.4609Z" fill="white" fill-opacity="0.85"/>
</g>
<defs>
<clipPath id="clip0_2_30">
<rect width="19.9219" height="19.9316" fill="white"/>
</clipPath>
</defs>
</svg>
