<svg width="19" height="21" viewBox="0 0 19 21" fill="none" xmlns="http://www.w3.org/2000/svg">
<g clip-path="url(#clip0_155_14)">
<path d="M0 15.459C0 16.1719 0.546875 16.6406 1.47461 16.6406H5.5957C5.67383 18.5254 7.14844 20.1758 9.20898 20.1758C11.2793 20.1758 12.7539 18.5352 12.832 16.6406H16.9531C17.8711 16.6406 18.4277 16.1719 18.4277 15.459C18.4277 14.4824 17.4316 13.6035 16.5918 12.7344C15.9473 12.0605 15.7715 10.6738 15.6934 9.55078C15.625 5.70312 14.6289 3.22266 12.0312 2.28516C11.6992 1.00586 10.6543 0 9.20898 0C7.77344 0 6.71875 1.00586 6.39648 2.28516C3.79883 3.22266 2.80273 5.70312 2.73438 9.55078C2.65625 10.6738 2.48047 12.0605 1.83594 12.7344C0.986328 13.6035 0 14.4824 0 15.459ZM1.89453 15.166V15.0488C2.07031 14.7656 2.65625 14.1895 3.16406 13.623C3.86719 12.8418 4.19922 11.582 4.28711 9.67773C4.36523 5.41016 5.63477 4.05273 7.30469 3.59375C7.54883 3.53516 7.68555 3.41797 7.69531 3.16406C7.72461 2.14844 8.31055 1.43555 9.20898 1.43555C10.1172 1.43555 10.6934 2.14844 10.7324 3.16406C10.7422 3.41797 10.8691 3.53516 11.1133 3.59375C12.793 4.05273 14.0625 5.41016 14.1406 9.67773C14.2285 11.582 14.5605 12.8418 15.2539 13.623C15.7715 14.1895 16.3477 14.7656 16.5234 15.0488V15.166H1.89453ZM7.11914 16.6406H11.3086C11.2305 17.9688 10.3906 18.7988 9.20898 18.7988C8.03711 18.7988 7.1875 17.9688 7.11914 16.6406Z" fill="white" fill-opacity="0.85"/>
</g>
<defs>
<clipPath id="clip0_155_14">
<rect width="18.7891" height="20.1855" fill="white"/>
</clipPath>
</defs>
</svg>
