<svg width="20" height="20" viewBox="0 0 20 20" fill="none" xmlns="http://www.w3.org/2000/svg">
<g clip-path="url(#clip0_2219_281)">
<path d="M9.96094 19.9219C15.4102 19.9219 19.9219 15.4004 19.9219 9.96094C19.9219 4.51172 15.4004 0 9.95117 0C4.51172 0 0 4.51172 0 9.96094C0 15.4004 4.52148 19.9219 9.96094 19.9219ZM9.96094 18.2617C5.35156 18.2617 1.66992 14.5703 1.66992 9.96094C1.66992 5.35156 5.3418 1.66016 9.95117 1.66016C14.5605 1.66016 18.2617 5.35156 18.2617 9.96094C18.2617 14.5703 14.5703 18.2617 9.96094 18.2617ZM3.64258 11.8164C3.19336 12.3926 3.7793 12.9102 4.33594 12.6172L7.56836 10.8691L11.8164 13.1445C12.002 13.252 12.1875 13.3105 12.3438 13.3105C12.5684 13.3105 12.7734 13.1934 12.9785 12.9492L16.2793 8.68164C16.6895 8.14453 16.1719 7.58789 15.5859 7.90039L12.334 9.64844L8.0957 7.36328C7.90039 7.26562 7.72461 7.19727 7.55859 7.19727C7.33398 7.19727 7.12891 7.31445 6.93359 7.56836L3.64258 11.8164Z" fill="black" fill-opacity="0.85"/>
</g>
<defs>
<clipPath id="clip0_2219_281">
<rect width="19.9219" height="19.9316" fill="white"/>
</clipPath>
</defs>
</svg>
