<svg width="20" height="20" viewBox="0 0 20 20" fill="none" xmlns="http://www.w3.org/2000/svg">
<g clip-path="url(#clip0_1803_113)">
<path d="M9.96094 19.9219C15.4102 19.9219 19.9219 15.4004 19.9219 9.96094C19.9219 4.51172 15.4004 0 9.95117 0C4.51172 0 0 4.51172 0 9.96094C0 15.4004 4.52148 19.9219 9.96094 19.9219ZM8.86719 14.7363C8.53516 14.7363 8.26172 14.5996 8.00781 14.2578L5.55664 11.25C5.41016 11.0547 5.32227 10.8398 5.32227 10.6152C5.32227 10.1758 5.66406 9.81445 6.10352 9.81445C6.38672 9.81445 6.60156 9.90234 6.8457 10.2246L8.82812 12.7832L12.998 6.08398C13.1836 5.79102 13.4375 5.63477 13.6914 5.63477C14.1211 5.63477 14.5215 5.92773 14.5215 6.38672C14.5215 6.60156 14.3945 6.82617 14.2773 7.03125L9.6875 14.2578C9.48242 14.5801 9.19922 14.7363 8.86719 14.7363Z" fill="black" fill-opacity="0.85"/>
</g>
<defs>
<clipPath id="clip0_1803_113">
<rect width="19.9219" height="19.9316" fill="white"/>
</clipPath>
</defs>
</svg>
