<svg width="16" height="18" viewBox="0 0 16 18" fill="none" xmlns="http://www.w3.org/2000/svg">
<g clip-path="url(#clip0_1827_107)">
<path d="M7.50977 0C7.28516 0 7.08008 0.0878906 6.8457 0.283203L0.263672 5.625C0.0976562 5.77148 0 5.97656 0 6.26953C0 6.77734 0.380859 7.1582 0.888672 7.1582C1.10352 7.1582 1.30859 7.08008 1.54297 6.9043L7.50977 2.04102L13.4766 6.9043C13.7012 7.08008 13.916 7.1582 14.1211 7.1582C14.6387 7.1582 15.0195 6.77734 15.0195 6.26953C15.0195 5.97656 14.9219 5.77148 14.7559 5.625L8.17383 0.273438C7.93945 0.0878906 7.72461 0 7.50977 0ZM7.50977 17.2852C7.72461 17.2852 7.93945 17.1973 8.17383 17.0117L14.7559 11.6602C14.9219 11.5137 15.0195 11.3086 15.0195 11.0156C15.0195 10.5078 14.6387 10.1172 14.1211 10.1172C13.916 10.1172 13.7012 10.2051 13.4766 10.3809L7.50977 15.2441L1.54297 10.3809C1.30859 10.2051 1.10352 10.1172 0.888672 10.1172C0.380859 10.1172 0 10.5078 0 11.0156C0 11.3086 0.0976562 11.5137 0.263672 11.6602L6.8457 17.002C7.08008 17.1973 7.28516 17.2852 7.50977 17.2852Z" fill="black" fill-opacity="0.85"/>
</g>
<defs>
<clipPath id="clip0_1827_107">
<rect width="15.0195" height="17.4707" fill="white"/>
</clipPath>
</defs>
</svg>
