<svg width="17" height="21" viewBox="0 0 17 21" fill="none" xmlns="http://www.w3.org/2000/svg">
<g clip-path="url(#clip0_164_26)">
<path d="M3.02734 20.9375H13.3984C15.4199 20.9375 16.4258 19.9121 16.4258 17.8809V9.01367C16.4258 7.75391 16.2793 7.20703 15.498 6.40625L10.1172 0.927734C9.375 0.166016 8.75977 0 7.66602 0H3.02734C1.01562 0 0 1.03516 0 3.06641V17.8809C0 19.9219 1.00586 20.9375 3.02734 20.9375ZM3.0957 19.3652C2.08984 19.3652 1.57227 18.8281 1.57227 17.8516V3.0957C1.57227 2.12891 2.08984 1.57227 3.10547 1.57227H7.45117V7.24609C7.45117 8.47656 8.06641 9.08203 9.28711 9.08203H14.8535V17.8516C14.8535 18.8281 14.3359 19.3652 13.3203 19.3652H3.0957ZM9.46289 7.60742C9.07227 7.60742 8.92578 7.45117 8.92578 7.06055V1.875L14.5508 7.60742H9.46289Z" fill="black" fill-opacity="0.85"/>
</g>
<defs>
<clipPath id="clip0_164_26">
<rect width="16.7871" height="20.9473" fill="black"/>
</clipPath>
</defs>
</svg>
