<svg width="20" height="20" viewBox="0 0 20 20" fill="none" xmlns="http://www.w3.org/2000/svg">
<g clip-path="url(#clip0_1816_137)">
<path d="M9.96094 19.9219C15.4102 19.9219 19.9219 15.4004 19.9219 9.96094C19.9219 4.51172 15.4004 0 9.95117 0C4.51172 0 0 4.51172 0 9.96094C0 15.4004 4.52148 19.9219 9.96094 19.9219ZM9.96094 18.2617C5.35156 18.2617 1.66992 14.5703 1.66992 9.96094C1.66992 5.35156 5.3418 1.66016 9.95117 1.66016C14.5605 1.66016 18.2617 5.35156 18.2617 9.96094C18.2617 14.5703 14.5703 18.2617 9.96094 18.2617ZM9.95117 11.7188C10.4102 11.7188 10.6836 11.4551 10.6934 10.9473L10.8398 5.79102C10.8496 5.29297 10.459 4.92188 9.94141 4.92188C9.41406 4.92188 9.04297 5.2832 9.05273 5.78125L9.17969 10.9473C9.18945 11.4453 9.46289 11.7188 9.95117 11.7188ZM9.95117 14.8926C10.5078 14.8926 10.9961 14.4434 10.9961 13.877C10.9961 13.3105 10.5176 12.8613 9.95117 12.8613C9.375 12.8613 8.89648 13.3203 8.89648 13.877C8.89648 14.4336 9.38477 14.8926 9.95117 14.8926Z" fill="black" fill-opacity="0.85"/>
</g>
<defs>
<clipPath id="clip0_1816_137">
<rect width="19.9219" height="19.9316" fill="white"/>
</clipPath>
</defs>
</svg>
