<svg width="21" height="20" viewBox="0 0 21 20" fill="none" xmlns="http://www.w3.org/2000/svg">
<g clip-path="url(#clip0_1809_129)">
<path d="M7.07031 19.3164H12.998C14.2383 19.3164 14.8242 18.916 15.4688 18.2227L19.2578 14.043C19.8926 13.3398 20.0684 12.8613 20.0684 11.8945V7.43164C20.0684 6.45508 19.8926 5.98633 19.2578 5.2832L15.4688 1.10352C14.8242 0.410156 14.2383 0 12.998 0H7.07031C5.83008 0 5.23438 0.410156 4.59961 1.10352L0.810547 5.2832C0.166016 5.98633 0 6.45508 0 7.43164V11.8945C0 12.8613 0.166016 13.3398 0.810547 14.043L4.59961 18.2227C5.23438 18.916 5.83008 19.3164 7.07031 19.3164ZM10.0391 11.4746C9.53125 11.4746 9.24805 11.1914 9.23828 10.6738L9.11133 5.35156C9.10156 4.83398 9.48242 4.46289 10.0293 4.46289C10.5664 4.46289 10.9668 4.84375 10.957 5.36133L10.8203 10.6738C10.8105 11.2012 10.5273 11.4746 10.0391 11.4746ZM10.0391 14.7461C9.45312 14.7461 8.94531 14.2773 8.94531 13.7012C8.94531 13.125 9.44336 12.6465 10.0391 12.6465C10.6348 12.6465 11.1328 13.1152 11.1328 13.7012C11.1328 14.2871 10.625 14.7461 10.0391 14.7461Z" fill="red" fill-opacity="0.85"/>
</g>
<defs>
<clipPath id="clip0_1809_129">
<rect width="20.0684" height="19.3262" fill="white"/>
</clipPath>
</defs>
</svg>
