<svg width="23" height="18" viewBox="0 0 23 18" fill="none" xmlns="http://www.w3.org/2000/svg">
<g clip-path="url(#clip0_164_18)">
<path d="M3.06641 17.8711H19.4043C21.1523 17.8711 22.1777 16.8555 22.1777 14.8438V4.81445C22.1777 2.80273 21.1426 1.78711 19.1113 1.78711H9.73633C9.07227 1.78711 8.67188 1.63086 8.18359 1.21094L7.58789 0.722656C6.94336 0.175781 6.44531 0 5.47852 0H2.69531C0.986328 0 0 0.976562 0 2.93945V14.8438C0 16.8652 1.02539 17.8711 3.06641 17.8711ZM3.08594 16.2988C2.10938 16.2988 1.57227 15.7812 1.57227 14.7656V3.02734C1.57227 2.06055 2.08008 1.5625 3.01758 1.5625H5.07812C5.72266 1.5625 6.11328 1.72852 6.61133 2.14844L7.20703 2.64648C7.8418 3.17383 8.35938 3.35938 9.32617 3.35938H19.082C20.0488 3.35938 20.6055 3.88672 20.6055 4.90234V14.7754C20.6055 15.7812 20.0488 16.2988 19.082 16.2988H3.08594ZM0.957031 6.93359H21.2109V5.45898H0.957031V6.93359Z" fill="black" fill-opacity="0.85"/>
</g>
<defs>
<clipPath id="clip0_164_18">
<rect width="22.5391" height="17.998" fill="black"/>
</clipPath>
</defs>
</svg>

