<svg width="20" height="20" viewBox="0 0 20 20" fill="none" xmlns="http://www.w3.org/2000/svg">
<g clip-path="url(#clip0_1818_145)">
<path d="M9.96094 19.9219C15.4102 19.9219 19.9219 15.4004 19.9219 9.96094C19.9219 4.51172 15.4004 0 9.95117 0C4.51172 0 0 4.51172 0 9.96094C0 15.4004 4.52148 19.9219 9.96094 19.9219ZM8.20312 15.6152C7.7832 15.6152 7.46094 15.3125 7.46094 14.8926C7.46094 14.502 7.7832 14.1797 8.20312 14.1797H9.44336V9.58984H8.36914C7.95898 9.58984 7.63672 9.28711 7.63672 8.86719C7.63672 8.47656 7.95898 8.1543 8.36914 8.1543H10.2637C10.7812 8.1543 11.0547 8.52539 11.0547 9.07227V14.1797H12.2949C12.7148 14.1797 13.0371 14.502 13.0371 14.8926C13.0371 15.3125 12.7148 15.6152 12.2949 15.6152H8.20312ZM9.87305 6.49414C9.14062 6.49414 8.55469 5.9082 8.55469 5.16602C8.55469 4.42383 9.14062 3.83789 9.87305 3.83789C10.6055 3.83789 11.1816 4.42383 11.1816 5.16602C11.1816 5.9082 10.6055 6.49414 9.87305 6.49414Z" fill="black" fill-opacity="0.85"/>
</g>
<defs>
<clipPath id="clip0_1818_145">
<rect width="19.9219" height="19.9316" fill="white"/>
</clipPath>
</defs>
</svg>
