<svg width="13" height="21" viewBox="0 0 13 21" fill="none" xmlns="http://www.w3.org/2000/svg">
<g clip-path="url(#clip0_2219_256)">
<path d="M2.86133 19.1016C2.03125 19.1016 1.57227 18.6621 1.57227 17.8809V2.79297C1.57227 2.01172 2.03125 1.57227 2.86133 1.57227H9.69727C10.5176 1.57227 10.9766 2.01172 10.9766 2.79297V17.8809C10.9766 18.6621 10.5176 19.1016 9.69727 19.1016H2.86133Z" fill="black" fill-opacity="0.2125"/>
<path d="M2.65625 20.6738H9.89258C11.4844 20.6738 12.5488 19.6582 12.5488 18.1348V2.53906C12.5488 1.01562 11.4844 0 9.89258 0H2.65625C1.06445 0 0 1.01562 0 2.53906V18.1348C0 19.6582 1.06445 20.6738 2.65625 20.6738ZM2.86133 19.1016C2.03125 19.1016 1.57227 18.6621 1.57227 17.8809V2.79297C1.57227 2.01172 2.03125 1.57227 2.86133 1.57227H9.69727C10.5176 1.57227 10.9766 2.01172 10.9766 2.79297V17.8809C10.9766 18.6621 10.5176 19.1016 9.69727 19.1016H2.86133ZM4.20898 18.3887H8.35938C8.62305 18.3887 8.80859 18.2031 8.80859 17.9297C8.80859 17.6562 8.62305 17.4805 8.35938 17.4805H4.20898C3.94531 17.4805 3.75 17.6562 3.75 17.9297C3.75 18.2031 3.94531 18.3887 4.20898 18.3887ZM5.09766 3.7207H7.46094C7.8418 3.7207 8.14453 3.41797 8.14453 3.02734C8.14453 2.64648 7.8418 2.34375 7.46094 2.34375H5.09766C4.70703 2.34375 4.4043 2.64648 4.4043 3.02734C4.4043 3.41797 4.70703 3.7207 5.09766 3.7207Z" fill="black" fill-opacity="0.85"/>
</g>
<defs>
<clipPath id="clip0_2219_256">
<rect width="12.5488" height="20.6934" fill="white"/>
</clipPath>
</defs>
</svg>
