<svg width="20" height="20" viewBox="0 0 20 20" fill="none" xmlns="http://www.w3.org/2000/svg">
<g clip-path="url(#clip0_1797_107)">
<path d="M9.96094 19.9219C15.4102 19.9219 19.9219 15.4004 19.9219 9.96094C19.9219 4.51172 15.4004 0 9.95117 0C4.51172 0 0 4.51172 0 9.96094C0 15.4004 4.52148 19.9219 9.96094 19.9219ZM9.96094 18.2617C5.35156 18.2617 1.66992 14.5703 1.66992 9.96094C1.66992 5.35156 5.3418 1.66016 9.95117 1.66016C14.5605 1.66016 18.2617 5.35156 18.2617 9.96094C18.2617 14.5703 14.5703 18.2617 9.96094 18.2617ZM4.64844 8.03711H15.293C15.7227 8.03711 16.0352 7.76367 16.0352 7.34375C16.0352 6.93359 15.7227 6.66016 15.293 6.66016H4.64844C4.20898 6.66016 3.90625 6.93359 3.90625 7.34375C3.90625 7.76367 4.20898 8.03711 4.64844 8.03711ZM6.09375 11.2695H13.8477C14.2773 11.2695 14.5801 10.9961 14.5801 10.5762C14.5801 10.166 14.2773 9.89258 13.8477 9.89258H6.09375C5.6543 9.89258 5.35156 10.166 5.35156 10.5762C5.35156 10.9961 5.6543 11.2695 6.09375 11.2695ZM7.59766 14.5117H12.334C12.7637 14.5117 13.0762 14.2285 13.0762 13.8184C13.0762 13.4082 12.7637 13.1348 12.334 13.1348H7.59766C7.16797 13.1348 6.86523 13.4082 6.86523 13.8184C6.86523 14.2285 7.16797 14.5117 7.59766 14.5117Z" fill="black" fill-opacity="0.85"/>
</g>
<defs>
<clipPath id="clip0_1797_107">
<rect width="19.9219" height="19.9316" fill="white"/>
</clipPath>
</defs>
</svg>





