<svg width="14" height="20" viewBox="0 0 14 20" fill="none" xmlns="http://www.w3.org/2000/svg">
<g clip-path="url(#clip0_1803_121)">
<path d="M2.19727 19.1504H11.1328C12.5684 19.1504 13.3301 18.3691 13.3301 16.8262V10.0977C13.3301 8.56445 12.5684 7.7832 11.1328 7.7832H2.19727C0.761719 7.7832 0 8.56445 0 10.0977V16.8262C0 18.3691 0.761719 19.1504 2.19727 19.1504ZM2.24609 17.6758C1.82617 17.6758 1.58203 17.4121 1.58203 16.9336V9.99023C1.58203 9.51172 1.82617 9.25781 2.24609 9.25781H11.084C11.5137 9.25781 11.748 9.51172 11.748 9.99023V16.9336C11.748 17.4121 11.5137 17.6758 11.084 17.6758H2.24609ZM1.70898 8.53516H3.26172V5.24414C3.26172 2.77344 4.83398 1.47461 6.66016 1.47461C8.48633 1.47461 10.0781 2.77344 10.0781 5.24414V8.53516H11.6211V5.44922C11.6211 1.77734 9.21875 0 6.66016 0C4.11133 0 1.70898 1.77734 1.70898 5.44922V8.53516Z" fill="black" fill-opacity="0.85"/>
</g>
<defs>
<clipPath id="clip0_1803_121">
<rect width="13.3301" height="19.6582" fill="white"/>
</clipPath>
</defs>
</svg>
