<svg width="21" height="20" viewBox="0 0 21 20" fill="none" xmlns="http://www.w3.org/2000/svg">
<g clip-path="url(#clip0_1806_121)">
<path d="M2.19727 19.1406H11.1328C12.5684 19.1406 13.3301 18.3594 13.3301 16.8164V10.0879C13.3301 8.55469 12.5684 7.77344 11.1328 7.77344H2.19727C0.761719 7.77344 0 8.55469 0 10.0879V16.8164C0 18.3594 0.761719 19.1406 2.19727 19.1406ZM2.24609 17.666C1.82617 17.666 1.58203 17.4023 1.58203 16.9238V9.98047C1.58203 9.50195 1.82617 9.24805 2.24609 9.24805H11.084C11.5137 9.24805 11.748 9.50195 11.748 9.98047V16.9238C11.748 17.4023 11.5137 17.666 11.084 17.666H2.24609ZM10.1855 8.53516H11.7285V5.24414C11.7285 2.77344 13.3105 1.47461 15.1367 1.47461C16.9629 1.47461 18.5449 2.77344 18.5449 5.24414V7.41211C18.5449 7.98828 18.8867 8.28125 19.3262 8.28125C19.7461 8.28125 20.0977 8.01758 20.0977 7.41211V5.44922C20.0977 1.77734 17.6855 0 15.1367 0C12.5781 0 10.1855 1.77734 10.1855 5.44922V8.53516Z" fill="black" fill-opacity="0.85"/>
</g>
<defs>
<clipPath id="clip0_1806_121">
<rect width="20.0977" height="19.6387" fill="white"/>
</clipPath>
</defs>
</svg>
