<svg width="22" height="22" viewBox="0 0 22 22" fill="white" xmlns="http://www.w3.org/2000/svg">
<g clip-path="url(#clip0_139_17)">
<path d="M17.6172 11.3574C17.8027 11.3574 17.9297 11.2305 17.9492 11.0352C18.2715 8.42773 18.3984 8.35938 21.0449 7.92969C21.25 7.90039 21.377 7.79297 21.377 7.60742C21.377 7.42188 21.25 7.30469 21.084 7.27539C18.418 6.76758 18.2715 6.77734 17.9492 4.16992C17.9297 3.97461 17.8027 3.84766 17.6172 3.84766C17.4414 3.84766 17.3145 3.97461 17.2852 4.16016C16.9531 6.80664 16.8555 6.89453 14.1504 7.27539C13.9844 7.29492 13.8574 7.42188 13.8574 7.60742C13.8574 7.7832 13.9844 7.90039 14.1504 7.92969C16.8555 8.44727 16.9434 8.44727 17.2852 11.0547C17.3145 11.2305 17.4414 11.3574 17.6172 11.3574ZM12.9492 4.74609C13.0664 4.74609 13.125 4.67773 13.1445 4.57031C13.4473 2.93945 13.4375 2.90039 15.1367 2.57812C15.2441 2.55859 15.3223 2.49023 15.3223 2.37305C15.3223 2.25586 15.2441 2.1875 15.1367 2.16797C13.4375 1.82617 13.4961 1.78711 13.1445 0.175781C13.125 0.0683594 13.0664 0 12.9492 0C12.832 0 12.7637 0.0683594 12.7441 0.175781C12.4023 1.78711 12.4609 1.82617 10.7617 2.16797C10.6445 2.1875 10.5762 2.25586 10.5762 2.37305C10.5762 2.49023 10.6445 2.55859 10.7617 2.57812C12.4609 2.91992 12.4414 2.93945 12.7441 4.57031C12.7637 4.67773 12.832 4.74609 12.9492 4.74609Z" fill="white" fill-opacity="0.85"/>
<path d="M10.3711 20.2836C13.9453 20.2836 16.8457 18.4867 18.1543 15.4203C18.3301 15.0102 18.2715 14.6781 18.0859 14.4926C17.9199 14.3168 17.6172 14.2875 17.2754 14.4145C16.5332 14.7074 15.6445 14.8832 14.5215 14.8832C10.1465 14.8832 7.34375 12.1488 7.34375 7.87153C7.34375 6.68989 7.56836 5.50825 7.87109 4.89302C8.05664 4.51216 8.04688 4.17036 7.87109 3.97505C7.68555 3.76021 7.35352 3.69185 6.9043 3.86763C3.90625 5.08833 1.83594 8.2231 1.83594 11.8656C1.83594 16.6215 5.3418 20.2836 10.3711 20.2836ZM10.3906 18.7895C6.23047 18.7895 3.33008 15.7524 3.33008 11.7484C3.33008 9.29732 4.47266 7.11958 6.28906 5.73286C6.04492 6.37739 5.9082 7.34419 5.9082 8.28169C5.9082 13.0961 9.22852 16.3188 14.1504 16.3188C15.0195 16.3188 15.8203 16.2016 16.2402 16.0649C15.0195 17.7543 12.8418 18.7895 10.3906 18.7895Z" fill="white" fill-opacity="0.85"/>
</g>
<defs>
<clipPath id="clip0_139_17">
<rect width="21.377" height="21.8652" fill="white"/>
</clipPath>
</defs>
</svg>
