<svg width="42" height="21" viewBox="0 0 42 21" fill="none" xmlns="http://www.w3.org/2000/svg">
<g clip-path="url(#clip0_164_8)">
<path d="M40.3027 17.8418C40.3027 18.916 39.5312 19.4043 37.9102 19.4043H30.2408C30.5269 18.9846 30.6688 18.4827 30.6798 17.9297H38.3789C38.6328 17.9297 38.7305 17.8613 38.7305 17.6562C38.7305 16.0449 36.25 13.0566 31.7773 13.0566C30.6473 13.0566 29.6445 13.2466 28.7774 13.5572C28.4321 13.1674 28.033 12.7985 27.5831 12.4619C28.7692 11.9182 30.1792 11.582 31.7773 11.582C37.0703 11.582 40.3027 15.2832 40.3027 17.8418ZM35.9961 5.78125C35.9961 8.30078 34.1016 10.3613 31.7773 10.3613C29.4531 10.3613 27.5586 8.31055 27.5586 5.80078C27.5586 3.32031 29.4629 1.31836 31.7773 1.31836C34.1113 1.31836 35.9961 3.28125 35.9961 5.78125ZM29.1309 5.80078C29.1309 7.5293 30.3516 8.88672 31.7773 8.88672C33.2129 8.88672 34.4238 7.50977 34.4238 5.78125C34.4238 4.07227 33.2324 2.79297 31.7773 2.79297C30.332 2.79297 29.1309 4.10156 29.1309 5.80078Z" fill="white" fill-opacity="0.85"/>
<path d="M29.3457 17.8418C29.3457 18.916 28.5742 19.4043 26.9531 19.4043H19.2861C19.5711 18.9846 19.7119 18.4827 19.7228 17.9297H27.4219C27.6758 17.9297 27.7734 17.8613 27.7734 17.6562C27.7734 16.0449 25.293 13.0566 20.8203 13.0566C19.6913 13.0566 18.6892 13.2462 17.8226 13.5563C17.4774 13.1664 17.0785 12.7975 16.6286 12.4608C17.8141 11.9177 19.2233 11.582 20.8203 11.582C26.1133 11.582 29.3457 15.2832 29.3457 17.8418ZM25.0391 5.78125C25.0391 8.30078 23.1445 10.3613 20.8203 10.3613C18.5059 10.3613 16.6016 8.31055 16.6016 5.80078C16.6016 3.32031 18.5059 1.31836 20.8203 1.31836C23.1543 1.31836 25.0391 3.28125 25.0391 5.78125ZM18.1738 5.80078C18.1738 7.5293 19.3945 8.88672 20.8203 8.88672C22.2656 8.88672 23.4668 7.50977 23.4668 5.78125C23.4668 4.07227 22.2754 2.79297 20.8203 2.79297C19.375 2.79297 18.1738 4.10156 18.1738 5.80078Z" fill="white" fill-opacity="0.85"/>
<path d="M9.87305 10.3613C12.1875 10.3613 14.0918 8.30078 14.0918 5.78125C14.0918 3.28125 12.207 1.31836 9.87305 1.31836C7.54883 1.31836 5.6543 3.32031 5.6543 5.80078C5.6543 8.31055 7.54883 10.3613 9.87305 10.3613ZM9.87305 8.88672C8.44727 8.88672 7.22656 7.5293 7.22656 5.80078C7.22656 4.10156 8.41797 2.79297 9.87305 2.79297C11.3281 2.79297 12.5195 4.07227 12.5195 5.78125C12.5195 7.50977 11.3086 8.88672 9.87305 8.88672ZM3.73047 19.4043H15.9961C17.627 19.4043 18.3984 18.916 18.3984 17.8418C18.3984 15.2832 15.166 11.582 9.86328 11.582C4.57031 11.582 1.33789 15.2832 1.33789 17.8418C1.33789 18.916 2.10938 19.4043 3.73047 19.4043ZM3.26172 17.9297C3.00781 17.9297 2.91016 17.8613 2.91016 17.6562C2.91016 16.0449 5.39062 13.0566 9.86328 13.0566C14.3457 13.0566 16.8262 16.0449 16.8262 17.6562C16.8262 17.8613 16.7188 17.9297 16.4648 17.9297H3.26172Z" fill="white" fill-opacity="0.85"/>
</g>
<defs>
<clipPath id="clip0_164_8">
<rect width="42.002" height="20.7324" fill="white"/>
</clipPath>
</defs>
</svg>
