<svg width="30" height="21" viewBox="0 0 30 21" fill="none" xmlns="http://www.w3.org/2000/svg">
<g clip-path="url(#clip0_156_23)">
<path d="M12.57 12.7009C12.1665 13.032 11.807 13.3886 11.4975 13.7628C10.5837 13.2887 9.50926 13.0078 8.37891 13.0078C5.18555 13.0078 2.42188 15.2637 2.42188 17.6855C2.42188 17.8809 2.51953 17.959 2.71484 17.959H9.78046C9.79511 18.5005 9.93586 18.9921 10.2158 19.4043H2.95898C1.63086 19.4043 0.966797 18.8672 0.966797 17.7734C0.966797 14.5312 4.28711 11.5625 8.37891 11.5625C9.93652 11.5625 11.38 11.9906 12.57 12.7009ZM12.0508 6.42578C12.0508 8.64258 10.4004 10.4492 8.38867 10.4492C6.37695 10.4492 4.72656 8.65234 4.72656 6.44531C4.72656 4.28711 6.37695 2.50977 8.38867 2.50977C10.4199 2.50977 12.0508 4.25781 12.0508 6.42578ZM6.18164 6.44531C6.18164 7.85156 7.19727 8.99414 8.38867 8.99414C9.58984 8.99414 10.6055 7.85156 10.6055 6.42578C10.6055 5.04883 9.61914 3.96484 8.38867 3.96484C7.1875 3.96484 6.18164 5.06836 6.18164 6.44531Z" fill="white" fill-opacity="0.85"/>
<path d="M19.6387 10.3613C21.9629 10.3613 23.8574 8.30078 23.8574 5.78125C23.8574 3.28125 21.9727 1.31836 19.6387 1.31836C17.3242 1.31836 15.4199 3.32031 15.4199 5.80078C15.4199 8.31055 17.3242 10.3613 19.6387 10.3613ZM19.6387 8.88672C18.2129 8.88672 16.9922 7.5293 16.9922 5.80078C16.9922 4.10156 18.1934 2.79297 19.6387 2.79297C21.0938 2.79297 22.2852 4.07227 22.2852 5.78125C22.2852 7.50977 21.084 8.88672 19.6387 8.88672ZM13.5059 19.4043H25.7715C27.3926 19.4043 28.1641 18.916 28.1641 17.8418C28.1641 15.2832 24.9316 11.582 19.6387 11.582C14.3359 11.582 11.1035 15.2832 11.1035 17.8418C11.1035 18.916 11.875 19.4043 13.5059 19.4043ZM13.0371 17.9297C12.7832 17.9297 12.6758 17.8613 12.6758 17.6562C12.6758 16.0449 15.1562 13.0566 19.6387 13.0566C24.1113 13.0566 26.5918 16.0449 26.5918 17.6562C26.5918 17.8613 26.4941 17.9297 26.2402 17.9297H13.0371Z" fill="white" fill-opacity="0.85"/>
</g>
<defs>
<clipPath id="clip0_156_23">
<rect width="29.502" height="20.7324" fill="white"/>
</clipPath>
</defs>
</svg>
