<svg width="17" height="17" viewBox="0 0 17 17" fill="none" xmlns="http://www.w3.org/2000/svg">
<g clip-path="url(#clip0_2198_105)">
<path d="M0 8.05664C0 8.53516 0.400391 8.92578 0.869141 8.92578H7.1875V15.2441C7.1875 15.7129 7.57812 16.1133 8.05664 16.1133C8.53516 16.1133 8.93555 15.7129 8.93555 15.2441V8.92578H15.2441C15.7129 8.92578 16.1133 8.53516 16.1133 8.05664C16.1133 7.57812 15.7129 7.17773 15.2441 7.17773H8.93555V0.869141C8.93555 0.400391 8.53516 0 8.05664 0C7.57812 0 7.1875 0.400391 7.1875 0.869141V7.17773H0.869141C0.400391 7.17773 0 7.57812 0 8.05664Z" fill="black" fill-opacity="0.85"/>
</g>
<defs>
<clipPath id="clip0_2198_105">
<rect width="16.1133" height="16.123" fill="white"/>
</clipPath>
</defs>
</svg>
