<svg width="72" height="72" viewBox="0 0 72 72" fill="none" xmlns="http://www.w3.org/2000/svg">
<path d="M8.08787 32.7188H24.9336C30.1582 32.7188 32.7461 30.082 32.7461 24.7109V8.20702C32.7461 2.83592 30.1582 0.199219 24.9336 0.199219H8.08787C2.86327 0.199219 0.275391 2.83592 0.275391 8.20702V24.7109C0.275391 30.082 2.86327 32.7188 8.08787 32.7188ZM8.13677 26.5664C7.01367 26.5664 6.37887 25.9316 6.37887 24.7109V8.15821C6.37887 6.98631 7.01367 6.35162 8.13677 6.35162H24.836C26.0078 6.35162 26.6426 6.98631 26.6426 8.15821V24.7109C26.6426 25.9316 26.0078 26.5664 24.836 26.5664H8.13677ZM13.1172 20.6094H19.8555C20.4414 20.6094 20.6856 20.3652 20.6856 19.6816V13.1875C20.6856 12.5527 20.4414 12.3086 19.8555 12.3086H13.1172C12.5313 12.3086 12.336 12.5527 12.336 13.1875V19.6816C12.336 20.3652 12.5313 20.6094 13.1172 20.6094ZM46.7598 32.7188H63.6055C68.8301 32.7188 71.418 30.082 71.418 24.7109V8.20702C71.418 2.83592 68.8301 0.199219 63.6055 0.199219H46.7598C41.5352 0.199219 38.9473 2.83592 38.9473 8.20702V24.7109C38.9473 30.082 41.5352 32.7188 46.7598 32.7188ZM46.8575 26.5664C45.6856 26.5664 45.0508 25.9316 45.0508 24.7109V8.15821C45.0508 6.98631 45.6856 6.35162 46.8575 6.35162H63.5567C64.7286 6.35162 65.3145 6.98631 65.3145 8.15821V24.7109C65.3145 25.9316 64.7286 26.5664 63.5567 26.5664H46.8575ZM52.0821 20.6094H58.8203C59.4063 20.6094 59.6504 20.3652 59.6504 19.6816V13.1875C59.6504 12.5527 59.4063 12.3086 58.8203 12.3086H52.0821C51.4961 12.3086 51.3008 12.5527 51.3008 13.1875V19.6816C51.3008 20.3652 51.4961 20.6094 52.0821 20.6094ZM8.08787 71.3906H24.9336C30.1582 71.3906 32.7461 68.7539 32.7461 63.3828V46.8789C32.7461 41.5078 30.1582 38.9199 24.9336 38.9199H8.08787C2.86327 38.9199 0.275391 41.5078 0.275391 46.8789V63.3828C0.275391 68.7539 2.86327 71.3906 8.08787 71.3906ZM8.13677 65.2383C7.01367 65.2383 6.37887 64.6035 6.37887 63.4317V46.8789C6.37887 45.6582 7.01367 45.0234 8.13677 45.0234H24.836C26.0078 45.0234 26.6426 45.6582 26.6426 46.8789V63.4317C26.6426 64.6035 26.0078 65.2383 24.836 65.2383H8.13677ZM13.1172 59.2812H19.8555C20.4414 59.2812 20.6856 59.0371 20.6856 58.3535V51.8594C20.6856 51.2246 20.4414 50.9805 19.8555 50.9805H13.1172C12.5313 50.9805 12.336 51.2246 12.336 51.8594V58.3535C12.336 59.0371 12.5313 59.2812 13.1172 59.2812ZM41.6328 49.125H48.3711C48.9571 49.125 49.2012 48.8809 49.2012 48.1973V41.7031C49.2012 41.0684 48.9571 40.8242 48.3711 40.8242H41.6328C41.0469 40.8242 40.8516 41.0684 40.8516 41.7031V48.1973C40.8516 48.8809 41.0469 49.125 41.6328 49.125ZM61.9453 49.125H68.6836C69.2696 49.125 69.5137 48.8809 69.5137 48.1973V41.7031C69.5137 41.0684 69.2696 40.8242 68.6836 40.8242H61.9453C61.3594 40.8242 61.1641 41.0684 61.1641 41.7031V48.1973C61.1641 48.8809 61.3594 49.125 61.9453 49.125ZM51.8868 59.2812H58.625C59.211 59.2812 59.4551 59.0371 59.4551 58.3535V51.8594C59.4551 51.2246 59.211 50.9805 58.625 50.9805H51.8868C51.3008 50.9805 51.1055 51.2246 51.1055 51.8594V58.3535C51.1055 59.0371 51.3008 59.2812 51.8868 59.2812ZM41.6328 69.4375H48.3711C48.9571 69.4375 49.2012 69.1934 49.2012 68.5098V62.0156C49.2012 61.3809 48.9571 61.1367 48.3711 61.1367H41.6328C41.0469 61.1367 40.8516 61.3809 40.8516 62.0156V68.5098C40.8516 69.1934 41.0469 69.4375 41.6328 69.4375ZM61.9453 69.4375H68.6836C69.2696 69.4375 69.5137 69.1934 69.5137 68.5098V62.0156C69.5137 61.3809 69.2696 61.1367 68.6836 61.1367H61.9453C61.3594 61.1367 61.1641 61.3809 61.1641 62.0156V68.5098C61.1641 69.1934 61.3594 69.4375 61.9453 69.4375Z" fill="black"/>
</svg>
