<svg width="18" height="18" viewBox="0 0 18 18" fill="none" xmlns="http://www.w3.org/2000/svg">
<g clip-path="url(#clip0_0_7)">
<path d="M3.06641 17.998H14.9121C16.9629 17.998 17.9785 16.9824 17.9785 14.9707V3.04688C17.9785 1.03516 16.9629 0.0195312 14.9121 0.0195312H3.06641C1.02539 0.0195312 0 1.02539 0 3.04688V14.9707C0 16.9922 1.02539 17.998 3.06641 17.998ZM3.08594 16.4258C2.10938 16.4258 1.57227 15.9082 1.57227 14.8926V3.125C1.57227 2.10938 2.10938 1.5918 3.08594 1.5918H14.8926C15.8594 1.5918 16.4062 2.10938 16.4062 3.125V14.8926C16.4062 15.9082 15.8594 16.4258 14.8926 16.4258H3.08594Z" stroke="black" stroke-width="2" fill="black" fill-opacity="0.85"/>
</g>
<defs>
<clipPath id="clip0_0_7">
<rect width="17.9785" height="17.998" fill="white"/>
</clipPath>
</defs>
</svg>
