<svg width="20" height="21" viewBox="0 0 20 21" fill="none" xmlns="http://www.w3.org/2000/svg">
<g clip-path="url(#clip0_2096_105)">
<path d="M3.06641 19.2895H14.5312C16.2891 19.2895 17.3047 18.2739 17.3047 16.2622V5.82271L15.7324 7.39497V16.184C15.7324 17.1997 15.1855 17.7172 14.5117 17.7172H3.0957C2.11914 17.7172 1.57227 17.1997 1.57227 16.184V5.10005C1.57227 4.08443 2.11914 3.55708 3.0957 3.55708H11.9922L13.5645 1.98482H3.06641C1.03516 1.98482 0 3.00044 0 5.01216V16.2622C0 18.2836 1.03516 19.2895 3.06641 19.2895ZM6.62109 12.9614L8.52539 12.1313L17.6465 3.01997L16.3086 1.70161L7.19727 10.8129L6.31836 12.6489C6.24023 12.8149 6.43555 13.0395 6.62109 12.9614ZM18.3691 2.30708L19.0723 1.58443C19.4043 1.23286 19.4043 0.764113 19.0723 0.441848L18.8477 0.207473C18.5449 -0.0952615 18.0664 -0.0561991 17.7441 0.256301L17.0312 0.959426L18.3691 2.30708Z" fill="black" fill-opacity="0.85"/>
</g>
<defs>
<clipPath id="clip0_2096_105">
<rect width="19.3213" height="20.6396" fill="white"/>
</clipPath>
</defs>
</svg>
