<svg width="20" height="20" viewBox="0 0 20 20" fill="none" xmlns="http://www.w3.org/2000/svg">
<g clip-path="url(#clip0_0_7)">
<path d="M9.96094 19.9219C15.4102 19.9219 19.9219 15.4004 19.9219 9.96094C19.9219 4.51172 15.4004 0 9.95117 0C4.51172 0 0 4.51172 0 9.96094C0 15.4004 4.52148 19.9219 9.96094 19.9219ZM7.07031 15.166C6.48438 15.6152 5.85938 15.1562 6.09375 14.4629L7.22656 11.0547L4.30664 8.97461C3.75977 8.57422 3.94531 7.79297 4.6875 7.80273L8.27148 7.83203L9.36523 4.4043C9.58008 3.73047 10.3418 3.73047 10.5566 4.4043L11.6504 7.83203L15.2344 7.80273C15.9863 7.79297 16.1523 8.58398 15.6152 8.96484L12.6953 11.0547L13.8379 14.4629C14.0625 15.1562 13.4473 15.6152 12.8516 15.166L9.96094 13.0566L7.07031 15.166Z" fill="black" fill-opacity="0.85"/>
</g>
<defs>
<clipPath id="clip0_0_7">
<rect width="19.9219" height="19.9316" fill="white"/>
</clipPath>
</defs>
</svg>
