<svg width="24" height="18" viewBox="0 0 24 18" fill="none" xmlns="http://www.w3.org/2000/svg">
<g clip-path="url(#clip0_156_32)">
<path d="M0.449219 7.04102H22.6855V5.46875H0.449219V7.04102ZM0.449219 12.5195H22.6855V10.9473H0.449219V12.5195ZM10.7324 17.5391H12.3047V0.449219H10.7324V17.5391ZM3.06641 17.9785H19.9609C22.0117 17.9785 23.0273 16.9727 23.0273 14.9609V3.02734C23.0273 1.01562 22.0117 0 19.9609 0H3.06641C1.02539 0 0 1.01562 0 3.02734V14.9609C0 16.9727 1.02539 17.9785 3.06641 17.9785ZM3.08594 16.4062C2.10938 16.4062 1.57227 15.8887 1.57227 14.873V3.11523C1.57227 2.09961 2.10938 1.57227 3.08594 1.57227H19.9414C20.9082 1.57227 21.4551 2.09961 21.4551 3.11523V14.873C21.4551 15.8887 20.9082 16.4062 19.9414 16.4062H3.08594Z" fill="white" fill-opacity="0.85"/>
</g>
<defs>
<clipPath id="clip0_156_32">
<rect width="23.3887" height="17.9785" fill="white"/>
</clipPath>
</defs>
</svg>
