<svg width="33" height="20" viewBox="0 0 33 20" fill="none" xmlns="http://www.w3.org/2000/svg">
<g clip-path="url(#clip0_38_15)">
<path d="M12.002 18.1543C16.1426 18.1543 16.5625 15.5078 20.6836 15.5078C25.2832 15.5078 25.1172 13.2227 28.252 13.2227C30.8887 13.2227 32.8613 12.3047 32.8613 10.4883C32.8613 6.60156 30.625 4.53125 28.0469 4.53125C25.3809 4.53125 23.9648 6.21094 23.3984 8.41797C23.0762 9.61914 22.5098 10.3711 21.6504 10.8008L21.0352 9.66797C18.4473 4.90234 16.0645 2.97852 12.1387 2.96875C7.90039 2.97852 5.74219 4.82422 2.57812 10.8008C1.62109 12.627 0 13.0273 0 14.1699C0 14.9707 0.615234 15.5078 1.85547 15.5078C2.23633 15.5078 2.66602 15.5078 3.0957 15.5078C7.61719 15.5078 8.50586 18.1543 12.002 18.1543ZM12.002 16.6016C8.88672 16.6016 7.97852 13.9355 3.42773 13.9355C2.92969 13.9355 2.42188 13.9453 1.96289 13.9746L1.88477 13.8379C2.54883 13.2812 3.37891 12.5781 3.97461 11.4062C6.68945 6.15234 8.49609 4.53125 12.1387 4.52148C16.123 4.53125 17.9199 7.2168 19.7754 10.5078C20.4492 11.709 21.3086 13.0762 22.1777 13.9355C21.7773 13.9453 21.3184 13.9355 20.8496 13.9355C16.2305 13.9355 15.4102 16.6016 12.002 16.6016ZM23.7598 13.5059C23.3203 13.1641 22.793 12.5195 22.4902 11.9727C23.5449 11.5723 24.2578 10.8594 24.6875 9.18945C25.1562 7.17773 26.2207 6.00586 28.0469 6.00586C29.9023 6.00586 31.4551 7.72461 31.4551 10.2539C31.4551 11.1914 30.0293 11.7969 28.5449 11.7969C26.1035 11.7969 25.0098 12.7051 23.7598 13.5059ZM28.418 9.62891C28.8965 9.62891 29.2969 9.22852 29.2969 8.75C29.2969 8.27148 28.8965 7.87109 28.418 7.87109C27.9297 7.87109 27.5293 8.27148 27.5293 8.75C27.5293 9.22852 27.9297 9.62891 28.418 9.62891ZM12.0215 10.8301C15.2637 10.8301 17.6855 9.39453 19.2871 7.8125L18.5645 6.75781C16.8359 8.54492 14.6191 9.57031 12.0215 9.57031C9.42383 9.57031 7.22656 8.57422 5.50781 6.75781L4.79492 7.83203C6.29883 9.35547 8.70117 10.8301 12.0215 10.8301ZM7.42188 15.6738C8.61328 14.3359 9.53125 12.0801 9.70703 10.3711L8.64258 10.0098C8.49609 11.5137 7.51953 13.916 6.32812 15.1465L7.42188 15.6738ZM16.7773 15.6543L17.9004 15.1367C16.6602 13.8574 15.7227 11.5625 15.5957 10.0098L14.5117 10.3125C14.6191 12.0898 15.5469 14.3359 16.7773 15.6543ZM2.87109 19.4629C4.85352 19.4629 6.9043 18.5645 8.47656 16.8359L7.24609 16.0449C5.625 17.5 4.17969 18.1543 2.89062 18.1543C2.03125 18.1543 1.5918 17.8809 1.5918 17.4121C1.5918 17.0605 1.8457 16.8262 2.59766 16.6406C3.1543 16.4941 4.82422 15.9668 5.6543 15.4688L4.45312 15C3.61328 15.3809 2.5293 15.5469 1.65039 15.8691C0.732422 16.1914 0.136719 16.6797 0.136719 17.6172C0.136719 18.8086 1.31836 19.4629 2.87109 19.4629ZM21.084 19.4824C22.627 19.4824 23.8184 18.8379 23.8184 17.6465C23.8184 16.5137 22.9688 16.0449 21.8262 15.7324C21.0352 15.5176 20.1953 15.3418 19.502 15.0293L18.3008 15.4883C19.1309 15.9961 20.8008 16.5234 21.3574 16.6699C22.0996 16.8555 22.3633 17.0898 22.3633 17.4414C22.3633 17.9004 21.9238 18.1738 21.0645 18.1738C19.7656 18.1738 18.3301 17.5293 16.709 16.0742L15.4688 16.8652C17.0117 18.5547 19.0918 19.4824 21.084 19.4824Z" fill="black" fill-opacity="0.85"/>
</g>
<defs>
<clipPath id="clip0_38_15">
<rect width="32.8613" height="19.4824" fill="white"/>
</clipPath>
</defs>
</svg>
