<svg width="24" height="25" viewBox="0 0 24 25" fill="none" xmlns="http://www.w3.org/2000/svg">
<g clip-path="url(#clip0_2218_215)">
<path d="M3.06641 22.5781H19.9609C22.0117 22.5781 23.0273 21.5625 23.0273 19.5508V13.7695C23.0273 12.8809 22.9102 12.4414 22.4707 11.9141L19.1016 7.73438C17.959 6.32812 17.2559 5.50781 15.5273 5.50781H14.0918V6.88477H15.6348C16.3477 6.88477 17.0898 7.50977 17.5684 8.11523L21.0352 12.4805C21.4258 12.9785 21.2891 13.1738 20.752 13.1738H14.7266C14.1797 13.1738 13.9258 13.5938 13.9258 14.0234V14.0625C13.9258 15.2637 12.9883 16.5234 11.5137 16.5234C10.0488 16.5234 9.11133 15.2637 9.11133 14.0625V14.0234C9.11133 13.5938 8.84766 13.1738 8.30078 13.1738H2.29492C1.72852 13.1738 1.62109 12.9492 2.00195 12.4805L5.45898 8.11523C5.9375 7.50977 6.67969 6.88477 7.39258 6.88477H8.94531V5.50781H7.50977C5.77148 5.50781 5.07812 6.32812 3.93555 7.73438L0.556641 11.9141C0.126953 12.4414 0 12.8809 0 13.7695V19.5508C0 21.5625 1.02539 22.5781 3.06641 22.5781ZM11.5137 13.0566C11.7188 13.0566 11.8848 12.998 12.0801 12.8027L15.3809 9.61914C15.5273 9.47266 15.6055 9.30664 15.6055 9.10156C15.6055 8.70117 15.3027 8.41797 14.9023 8.41797C14.707 8.41797 14.502 8.49609 14.3652 8.65234L12.8906 10.2246L12.2266 10.918L12.2949 9.45312V0.751953C12.2949 0.341797 11.9336 0 11.5137 0C11.0938 0 10.7422 0.341797 10.7422 0.751953V9.45312L10.8008 10.918L10.1367 10.2246L8.66211 8.65234C8.51562 8.49609 8.31055 8.41797 8.11523 8.41797C7.71484 8.41797 7.42188 8.70117 7.42188 9.10156C7.42188 9.30664 7.5 9.47266 7.64648 9.61914L10.9473 12.8027C11.1426 12.998 11.3184 13.0566 11.5137 13.0566Z" fill="black" fill-opacity="0.85"/>
</g>
<defs>
<clipPath id="clip0_2218_215">
<rect width="23.0273" height="24.5605" fill="white"/>
</clipPath>
</defs>
</svg>

