<svg width="24" height="24" viewBox="0 0 24 24" fill="none" xmlns="http://www.w3.org/2000/svg">
<g clip-path="url(#clip0_1906_105)">
<path d="M7.4451 13.971L8.3826 13.053L1.90799 6.54907C1.1951 5.83618 1.20486 5.094 1.90799 4.3811L3.28494 2.99439C3.9783 2.29126 4.74002 2.30103 5.45291 3.00415L12.4256 9.96704L13.4021 9.0979L6.4783 2.12525C5.10135 0.758056 3.6365 0.758056 2.29861 2.09595L0.999786 3.39478C-0.338105 4.73267 -0.338105 6.19751 1.02908 7.5647L7.4451 13.971ZM6.81033 9.62525C6.95682 9.77173 7.19119 9.77173 7.32791 9.62525C7.46463 9.48853 7.47439 9.26392 7.32791 9.11743L3.67557 5.46509C3.54861 5.3479 3.30447 5.32837 3.15799 5.46509C3.02127 5.62134 3.0115 5.85571 3.15799 5.99243L6.81033 9.62525ZM8.0115 8.43384C8.14822 8.58032 8.40213 8.56079 8.52908 8.43384C8.67557 8.26782 8.67557 8.04321 8.53885 7.9065L4.8865 4.26392C4.74002 4.11743 4.50564 4.1272 4.37869 4.26392C4.23221 4.4104 4.24197 4.63501 4.37869 4.77173L8.0115 8.43384ZM20.5799 23.4143L22.3279 21.6663C22.533 21.4514 22.5037 21.1389 22.3084 20.8362L20.2674 17.7893C20.0623 17.4866 19.7498 17.2717 19.3982 17.2229L18.5193 17.0862L13.783 12.3499L12.8748 13.3948L17.9529 18.4534L19.0467 18.6389L20.9119 21.1194L20.0232 22.0081L17.5525 20.1428L17.3572 19.0491L12.3279 14.01L11.4099 15.0452L15.99 19.6155L16.1267 20.4944C16.1756 20.846 16.4002 21.1585 16.6931 21.3538L19.7498 23.4241C20.0623 23.6292 20.365 23.6292 20.5799 23.4143ZM1.52713 22.262C3.22635 23.9417 5.50174 23.9612 7.17166 22.2815C9.3201 20.1135 8.92947 17.6526 15.824 10.7874L14.9744 9.92798C7.45486 17.4768 8.59744 18.8831 6.17557 21.305C5.09158 22.3987 3.62674 22.4085 2.49393 21.2952C1.37088 20.1526 1.39041 18.6975 2.46463 17.6135C4.90604 15.1819 6.31229 16.3342 13.8513 8.8147L13.0017 7.96509C6.1365 14.8596 3.67557 14.469 1.5076 16.6077C-0.181855 18.2776 -0.162324 20.5628 1.52713 22.262ZM4.31033 20.7092C4.97439 20.7092 5.52127 20.1624 5.52127 19.4983C5.52127 18.8342 4.97439 18.2971 4.31033 18.2971C3.64627 18.2971 3.10916 18.8342 3.10916 19.4983C3.10916 20.1624 3.64627 20.7092 4.31033 20.7092ZM13.6756 10.1038C15.9119 12.3401 19.4763 12.4182 21.6443 10.26C23.4021 8.5022 23.7049 5.72876 22.3963 3.48267L21.449 4.4397C22.2693 6.11939 21.9959 8.07251 20.7263 9.35181C19.076 11.0022 16.3416 10.9241 14.5935 9.19556C12.8553 7.45728 12.7869 4.70337 14.4471 3.06275C15.7166 1.79321 17.699 1.51978 19.3299 2.34985L20.2869 1.39282C18.0603 0.093994 15.2967 0.386963 13.5388 2.15454C11.3806 4.30298 11.449 7.86743 13.6756 10.1038ZM16.6346 5.719L18.0799 7.15454C18.8025 7.8772 19.7303 7.89673 20.4138 7.20337L22.4646 5.14282L21.6053 4.29321L19.74 6.13892C19.4763 6.40259 19.1443 6.42212 18.8611 6.13892L17.6697 4.93775C17.3865 4.64478 17.3572 4.30298 17.6209 4.03931L19.5056 2.17407L18.617 1.3147L16.5857 3.35571C15.8631 4.0686 15.8826 4.98657 16.6346 5.719Z" fill="black" fill-opacity="0.85"/>
</g>
<defs>
<clipPath id="clip0_1906_105">
<rect width="23.2041" height="23.5767" fill="white"/>
</clipPath>
</defs>
</svg>
