<svg width="20" height="20" viewBox="0 0 20 20" fill="none" xmlns="http://www.w3.org/2000/svg">
<g clip-path="url(#clip0_1799_106)">
<path d="M9.96094 19.9219C15.4102 19.9219 19.9219 15.4004 19.9219 9.96094C19.9219 4.51172 15.4004 0 9.95117 0C4.51172 0 0 4.51172 0 9.96094C0 15.4004 4.52148 19.9219 9.96094 19.9219ZM6.67969 14.0625C6.23047 14.0625 5.87891 13.7012 5.87891 13.252C5.87891 13.0371 5.95703 12.832 6.11328 12.6855L8.81836 9.9707L6.11328 7.26562C5.95703 7.10938 5.87891 6.91406 5.87891 6.69922C5.87891 6.24023 6.23047 5.89844 6.67969 5.89844C6.9043 5.89844 7.08008 5.97656 7.23633 6.12305L9.96094 8.83789L12.7051 6.11328C12.8711 5.94727 13.0469 5.87891 13.2617 5.87891C13.7109 5.87891 14.0723 6.23047 14.0723 6.67969C14.0723 6.9043 14.0039 7.08008 13.8281 7.25586L11.1133 9.9707L13.8184 12.6758C13.9844 12.8223 14.0625 13.0273 14.0625 13.252C14.0625 13.7012 13.7012 14.0625 13.2422 14.0625C13.0176 14.0625 12.8125 13.9844 12.666 13.8281L9.96094 11.1133L7.26562 13.8281C7.10938 13.9844 6.9043 14.0625 6.67969 14.0625Z" fill="black" fill-opacity="0.85"/>
</g>
<defs>
<clipPath id="clip0_1799_106">
<rect width="19.9219" height="19.9316" fill="white"/>
</clipPath>
</defs>
</svg>
